<svg width="146" height="36" viewBox="0 0 146 36" fill="none" xmlns="http://www.w3.org/2000/svg">
    <path d="M51.6911 25.9558V24.1326H51.6396C50.646 25.712 48.7197 26.4385 46.8965 26.4385C42.5565 26.4385 39.3132 22.7687 39.3132 18.5318C39.3132 15.3447 41.0286 12.528 43.9766 11.2156C44.8858 10.8126 45.8794 10.5735 46.8965 10.5735C48.7197 10.5735 50.1398 11.0563 51.4005 12.3967V6.12573H54.9625V25.9558H51.6911ZM47.2714 13.845C44.8577 13.845 42.8752 16.0431 42.8752 18.4006C42.8752 20.8658 44.6702 23.1718 47.2714 23.1718C49.7883 23.1718 51.6677 20.9455 51.6677 18.5084C51.6677 16.0712 49.7883 13.845 47.2714 13.845Z"
          fill="#191717" />
    <path d="M61.8241 17.5944V25.9557H58.2621V11.0844H61.5336V12.3967H61.5851C62.574 10.9484 63.3005 10.5735 65.0674 10.5735V14.0324C62.7381 14.1121 61.8241 15.4244 61.8241 17.5944Z"
          fill="#191717" />
    <path d="M66.8156 25.9557V11.0844H70.3776V25.9557H66.8156Z" fill="#191717" />
    <path d="M80.8573 25.9557H78.0687L72.0648 11.0844H75.9268L79.5169 20.9455H79.5966L82.9711 11.0844H86.8846L80.8573 25.9557Z"
          fill="#191717" />
    <path d="M102.506 20.1159H90.9575C91.0372 20.519 91.2247 20.8658 91.4403 21.1892C92.2417 22.4218 93.5821 23.1717 95.0585 23.1717C96.5067 23.1717 97.7628 22.5812 98.4893 21.2689H102.239C101.273 24.2966 98.2174 26.4384 95.0585 26.4384C90.6107 26.4384 87.208 22.9796 87.208 18.5599C87.208 14.1121 90.531 10.5735 95.0304 10.5735C99.3704 10.5735 102.721 14.0043 102.721 18.3161C102.721 18.9067 102.642 19.5254 102.506 20.1159ZM95.0585 13.8449C92.8885 13.8449 91.3606 15.1291 90.8497 17.2475H99.0751C98.7283 15.1057 97.2285 13.8449 95.0585 13.8449Z"
          fill="#191717" />
    <path d="M105.332 25.9558V6.12573H108.894V25.9558H105.332Z" fill="#191717" />
    <path d="M123.892 25.9558V24.1092C122.711 25.5011 120.517 26.4385 118.694 26.4385C114.218 26.4385 111.458 22.6609 111.458 18.4287C111.458 14.1684 114.514 10.5782 118.905 10.5782C120.541 10.5782 122.092 11.2485 123.301 12.3452C123.461 12.5045 123.704 12.7483 123.836 12.9592H123.887V11.0844H127.159V25.9558H123.892ZM119.444 13.845C116.791 13.845 115.024 16.0431 115.024 18.5881C115.024 21.0815 116.899 23.1718 119.444 23.1718C122.097 23.1718 123.784 21.0299 123.784 18.4803C123.789 15.9353 122.073 13.845 119.444 13.845Z"
          fill="#191717" />
    <path d="M145.362 21.6954C144.209 24.6434 141.824 26.4385 138.609 26.4385C136.439 26.4385 135.018 25.7683 133.598 24.1607V25.9558H130.327V6.12573H133.889V12.4248C135.093 11.2203 136.809 10.5782 138.524 10.5782C142.836 10.5782 146 14.2761 146 18.4568C146.009 19.5535 145.765 20.6784 145.362 21.6954ZM138.102 13.845C135.637 13.845 133.683 15.879 133.683 18.3209C133.683 20.9455 135.426 23.1718 138.159 23.1718C140.811 23.1718 142.447 21.0299 142.447 18.4802C142.442 15.9634 140.699 13.845 138.102 13.845Z"
          fill="#191717" />
    <path d="M68.6013 9.48143C69.9163 9.48143 70.9822 8.41546 70.9822 7.10052C70.9822 5.78558 69.9163 4.7196 68.6013 4.7196C67.2864 4.7196 66.2204 5.78558 66.2204 7.10052C66.2204 8.41546 67.2864 9.48143 68.6013 9.48143Z"
          fill="#F15A29" />
    <path d="M16.4133 0H7.4427V7.4427H0V35.4231H16.4133C16.957 35.4231 17.4866 35.3903 18.0162 35.3435V32.1423V27.8492V24.7934H16.4461C16.4367 24.7934 16.4227 24.7934 16.4133 24.7934H10.6344V13.8027V10.6344H13.5262H16.418C20.3221 10.6344 23.4998 13.8121 23.4998 17.7163C23.4998 19.7691 22.614 21.6204 21.2126 22.914V23.4483V26.7947V31.4018V32.0064V34.7482C28.6553 32.6485 34.1296 25.8151 34.1296 17.7116C34.1249 7.94419 26.1807 0 16.4133 0ZM7.4427 13.8027V27.9804H14.8198V32.2314H3.19174V10.6344H7.4427V13.8027ZM24.395 29.827V24.156C25.8245 22.3937 26.6822 20.1487 26.6822 17.7069C26.6822 12.0452 22.075 7.43801 16.4133 7.43801H13.5215H10.6298V3.19174H16.4086C24.4184 3.19174 30.9331 9.70176 30.9331 17.7116C30.9331 22.7687 28.3319 27.2259 24.395 29.827Z"
          fill="#F15A29" />
    <path d="M13.5215 10.6344V7.44263H12.5466H10.6344V10.6344H13.5215Z" fill="#D83A27" />
</svg>